<svg width="14" height="14" viewBox="0 0 14 14" fill="none" xmlns="http://www.w3.org/2000/svg">
<rect x="2" y="7" width="10" height="1" fill="#CED0D6"/>
<path fill-rule="evenodd" clip-rule="evenodd" d="M4.85489 4.85463C4.90138 4.80814 4.93826 4.75295 4.96342 4.69222C4.98858 4.63148 5.00153 4.56638 5.00153 4.50063C5.00153 4.43489 4.98858 4.36979 4.96342 4.30905C4.93826 4.24831 4.90138 4.19312 4.85489 4.14663C4.80841 4.10014 4.75322 4.06327 4.69248 4.03811C4.63174 4.01295 4.56664 4 4.50089 4C4.43515 4 4.37005 4.01295 4.30931 4.03811C4.24857 4.06327 4.19338 4.10014 4.14689 4.14663L1.14689 7.14663C1.10033 7.19308 1.06339 7.24825 1.03818 7.309C1.01297 7.36974 1 7.43486 1 7.50063C1 7.5664 1.01297 7.63152 1.03818 7.69226C1.06339 7.75301 1.10033 7.80819 1.14689 7.85463L4.14689 10.8546C4.19338 10.9011 4.24857 10.938 4.30931 10.9632C4.37005 10.9883 4.43515 11.0013 4.50089 11.0013C4.56664 11.0013 4.63174 10.9883 4.69248 10.9632C4.75322 10.938 4.80841 10.9011 4.85489 10.8546C4.90138 10.8081 4.93826 10.753 4.96342 10.6922C4.98858 10.6315 5.00153 10.5664 5.00153 10.5006C5.00153 10.4349 4.98858 10.3698 4.96342 10.309C4.93826 10.2483 4.90138 10.1931 4.85489 10.1466L2.20789 7.50063L4.85489 4.85463ZM9.14689 4.85463C9.10041 4.80814 9.06353 4.75295 9.03837 4.69222C9.01321 4.63148 9.00026 4.56638 9.00026 4.50063C9.00026 4.43489 9.01321 4.36979 9.03837 4.30905C9.06353 4.24831 9.10041 4.19312 9.14689 4.14663C9.19338 4.10014 9.24857 4.06327 9.30931 4.03811C9.37005 4.01295 9.43515 4 9.50089 4C9.56664 4 9.63174 4.01295 9.69248 4.03811C9.75322 4.06327 9.80841 4.10014 9.85489 4.14663L12.8549 7.14663C12.9015 7.19308 12.9384 7.24825 12.9636 7.309C12.9888 7.36974 13.0018 7.43486 13.0018 7.50063C13.0018 7.5664 12.9888 7.63152 12.9636 7.69226C12.9384 7.75301 12.9015 7.80819 12.8549 7.85463L9.85489 10.8546C9.80841 10.9011 9.75322 10.938 9.69248 10.9632C9.63174 10.9883 9.56664 11.0013 9.50089 11.0013C9.43515 11.0013 9.37005 10.9883 9.30931 10.9632C9.24857 10.938 9.19338 10.9011 9.14689 10.8546C9.10041 10.8081 9.06353 10.753 9.03837 10.6922C9.01321 10.6315 9.00026 10.5664 9.00026 10.5006C9.00026 10.4349 9.01321 10.3698 9.03837 10.309C9.06353 10.2483 9.10041 10.1931 9.14689 10.1466L11.7939 7.50063L9.14689 4.85463Z" fill="#CED0D6"/>
</svg>
